<svg width="25" height="26" viewBox="0 0 25 26" fill="none" xmlns="http://www.w3.org/2000/svg">
<g id="Rocket">
<path id="Vector" d="M4.13411 15.4844L9.11899 15.522C9.72719 15.5266 10.2456 15.9616 10.3557 16.5598L11.2584 21.4624C11.3548 21.9861 11.0036 22.4888 10.4785 22.5788L4.31118 23.6365C3.73128 23.7359 3.20219 23.2919 3.19942 22.7036L3.17005 16.4463C3.16755 15.9135 3.60162 15.4804 4.13411 15.4844Z" fill="#FF965D"/>
<path id="Vector_2" d="M10.507 1.28838L22.4845 0.31507C23 0.27318 23.4536 0.64986 23.5072 1.16427L24.7861 13.4585C24.8475 14.0488 24.3608 14.5531 23.769 14.5124L0.813469 12.9345C0.295449 12.8989 0.038269 12.2904 0.372779 11.8917L8.32207 2.41823C8.87067 1.76442 9.65777 1.35739 10.507 1.28838Z" fill="#304FFD"/>
<path id="Vector_3" d="M15.4911 24.9883L22.0306 17.1948C22.3703 16.7899 22.0992 16.1726 21.5722 16.1511L13.6809 15.8289C13.056 15.8034 12.5742 16.3766 12.7068 16.9878L14.3834 24.7171C14.4953 25.233 15.151 25.3935 15.4911 24.9883Z" fill="#304FFD"/>
</g>
</svg>
